REM DIRINDEX 1\2,1\4,1\3\5,1\3\6,1\3\7
REM DIRNAME folder01,folder02,folder03,folder04,folder05,folder06,folder07
TITLE ""
FILE "CD2Track51.mp3" MP3
  TRACK 01 AUDIO
    TITLE "0:"
    INDEX 01 00:00:00
  TRACK 02 AUDIO
    TITLE "5:cjc082_2263"
    INDEX 01 00:00:29
  TRACK 03 AUDIO
    TITLE "0:"
    INDEX 01 00:01:42
  TRACK 04 AUDIO
    TITLE "6:cjc082_2264"
    INDEX 01 00:02:14
  TRACK 05 AUDIO
    TITLE "0:"
    INDEX 01 00:03:04
  TRACK 06 AUDIO
    TITLE "5:cjc082_2265"
    INDEX 01 00:03:55
  TRACK 07 AUDIO
    TITLE "0:"
    INDEX 01 00:04:66
  TRACK 08 AUDIO
    TITLE "6:cjc082_2266"
    INDEX 01 00:05:42
  TRACK 09 AUDIO
    TITLE "0:"
    INDEX 01 00:06:61
  TRACK 10 AUDIO
    TITLE "5:cjc082_2267"
    INDEX 01 00:07:33
  TRACK 11 AUDIO
    TITLE "0:"
    INDEX 01 00:08:60
  TRACK 12 AUDIO
    TITLE "6:cjc082_2268"
    INDEX 01 00:09:34
  TRACK 13 AUDIO
    TITLE "0:"
    INDEX 01 00:12:46
  TRACK 14 AUDIO
    TITLE "5:cjc082_2269"
    INDEX 01 00:13:20
  TRACK 15 AUDIO
    TITLE "0:"
    INDEX 01 00:14:39
  TRACK 16 AUDIO
    TITLE "6:cjc082_2270"
    INDEX 01 00:15:11
  TRACK 17 AUDIO
    TITLE "0:"
    INDEX 01 00:16:18
  TRACK 18 AUDIO
    TITLE "5:cjc082_2271"
    INDEX 01 00:16:69
  TRACK 19 AUDIO
    TITLE "0:"
    INDEX 01 00:18:07
  TRACK 20 AUDIO
    TITLE "6:cjc082_2272"
    INDEX 01 00:18:54
  TRACK 21 AUDIO
    TITLE "0:"
    INDEX 01 00:19:50
  TRACK 22 AUDIO
    TITLE "5:cjc082_2273"
    INDEX 01 00:20:20
  TRACK 23 AUDIO
    TITLE "0:"
    INDEX 01 00:22:07
  TRACK 24 AUDIO
    TITLE "6:cjc082_2274"
    INDEX 01 00:22:54
  TRACK 25 AUDIO
    TITLE "0:"
    INDEX 01 00:25:09
  TRACK 26 AUDIO
    TITLE "5:cjc082_2275"
    INDEX 01 00:25:58
  TRACK 27 AUDIO
    TITLE "0:"
    INDEX 01 00:26:69
  TRACK 28 AUDIO
    TITLE "6:cjc082_2276"
    INDEX 01 00:27:45
  TRACK 29 AUDIO
    TITLE "0:"
    INDEX 01 00:30:20
  TRACK 30 AUDIO
    TITLE "5:cjc082_2277"
    INDEX 01 00:30:69
  TRACK 31 AUDIO
    TITLE "0:"
    INDEX 01 00:32:11
  TRACK 32 AUDIO
    TITLE "6:cjc082_2278"
    INDEX 01 00:32:58
  TRACK 33 AUDIO
    TITLE "0:"
    INDEX 01 00:34:38
  TRACK 34 AUDIO
    TITLE "5:cjc082_2279"
    INDEX 01 00:35:10
  TRACK 35 AUDIO
    TITLE "0:"
    INDEX 01 00:36:27
  TRACK 36 AUDIO
    TITLE "6:cjc082_2280"
    INDEX 01 00:36:70
  TRACK 37 AUDIO
    TITLE "0:"
    INDEX 01 00:38:33
  TRACK 38 AUDIO
    TITLE "5:cjc082_2281"
    INDEX 01 00:39:00
  TRACK 39 AUDIO
    TITLE "0:"
    INDEX 01 00:40:17
  TRACK 40 AUDIO
    TITLE "6:cjc082_2282"
    INDEX 01 00:40:64
  TRACK 41 AUDIO
    TITLE "0:"
    INDEX 01 00:42:25
  TRACK 42 AUDIO
    TITLE "5:cjc082_2283"
    INDEX 01 00:42:70
  TRACK 43 AUDIO
    TITLE "0:"
    INDEX 01 00:44:18
  TRACK 44 AUDIO
    TITLE "6:cjc082_2284"
    INDEX 01 00:44:67
  TRACK 45 AUDIO
    TITLE "0:"
    INDEX 01 00:46:64
  TRACK 46 AUDIO
    TITLE "5:cjc082_2285"
    INDEX 01 00:47:32
  TRACK 47 AUDIO
    TITLE "0:"
    INDEX 01 00:48:42
  TRACK 48 AUDIO
    TITLE "6:cjc082_2286"
    INDEX 01 00:49:21
  TRACK 49 AUDIO
    TITLE "0:"
    INDEX 01 00:50:35
  TRACK 50 AUDIO
    TITLE "5:cjc082_2287"
    INDEX 01 00:51:13
  TRACK 51 AUDIO
    TITLE "0:"
    INDEX 01 00:52:41
  TRACK 52 AUDIO
    TITLE "6:cjc082_2288"
    INDEX 01 00:53:13
  TRACK 53 AUDIO
    TITLE "0:"
    INDEX 01 00:54:21
  TRACK 54 AUDIO
    TITLE "5:cjc082_2289"
    INDEX 01 00:54:70
  TRACK 55 AUDIO
    TITLE "0:"
    INDEX 01 00:55:73
  TRACK 56 AUDIO
    TITLE "6:cjc082_2290"
    INDEX 01 00:56:49
  TRACK 57 AUDIO
    TITLE "0:"
    INDEX 01 01:00:62
  TRACK 58 AUDIO
    TITLE "7:cjc082_2291"
    INDEX 01 01:02:26
  TRACK 59 AUDIO
    TITLE "0:"
    INDEX 01 01:12:71
